<svg width="12" height="12" viewBox="0 0 12 12" fill="none" xmlns="http://www.w3.org/2000/svg">
<path d="M11.2999 12C9.91099 12 8.53877 11.6973 7.18321 11.092C5.82766 10.4867 4.59432 9.62822 3.48321 8.51667C2.3721 7.40511 1.51388 6.17178 0.908545 4.81667C0.303211 3.46156 0.000322374 2.08933 -0.00012207 0.7C-0.00012207 0.5 0.0665446 0.333333 0.199878 0.2C0.333211 0.0666666 0.499878 0 0.699878 0H3.39988C3.55543 0 3.69432 0.0528888 3.81655 0.158667C3.93877 0.264444 4.01099 0.389333 4.03321 0.533333L4.46654 2.86667C4.48877 3.04444 4.48321 3.19444 4.44988 3.31667C4.41654 3.43889 4.35543 3.54444 4.26654 3.63333L2.64988 5.26667C2.8721 5.67778 3.13588 6.07489 3.44121 6.458C3.74654 6.84111 4.08277 7.21067 4.44988 7.56667C4.79432 7.91111 5.15543 8.23067 5.53321 8.52533C5.91099 8.82 6.31099 9.08933 6.73321 9.33333L8.29988 7.76667C8.39988 7.66667 8.53055 7.59178 8.69188 7.542C8.85321 7.49222 9.01143 7.47822 9.16654 7.5L11.4665 7.96667C11.6221 8.01111 11.7499 8.09178 11.8499 8.20867C11.9499 8.32556 11.9999 8.456 11.9999 8.6V11.3C11.9999 11.5 11.9332 11.6667 11.7999 11.8C11.6665 11.9333 11.4999 12 11.2999 12Z" fill="white"/>
</svg>
