<svg width="60" height="47" viewBox="0 0 60 47" fill="none" xmlns="http://www.w3.org/2000/svg">
<path d="M54.3333 4.51725C57.6666 8.18392 59.6667 12.1839 59.6667 18.8506C59.6667 30.5173 51.3333 40.8506 39.6666 46.1839L36.6666 41.8506C47.6666 35.8506 50 28.1839 50.6667 23.1839C49 24.1839 46.6666 24.5173 44.3333 24.1839C38.3333 23.5173 33.6666 18.8506 33.6666 12.5173C33.6666 9.51725 35 6.51725 37 4.18392C39.3333 1.85059 42 0.850586 45.3333 0.850586C49 0.850586 52.3333 2.51725 54.3333 4.51725ZM21 4.51725C24.3333 8.18392 26.3333 12.1839 26.3333 18.8506C26.3333 30.5173 18 40.8506 6.33331 46.1839L3.33331 41.8506C14.3333 35.8506 16.6666 28.1839 17.3333 23.1839C15.6666 24.1839 13.3333 24.5173 11 24.1839C4.99998 23.5173 0.333313 18.5173 0.333313 12.5173C0.333313 9.51725 1.66665 6.51725 3.66665 4.18392C5.99998 1.85059 8.66665 0.850586 12 0.850586C15.6666 0.850586 19 2.51725 21 4.51725Z" fill="#134A8E"/>
</svg>
