<svg width="30" height="24" viewBox="0 0 30 24" fill="none" xmlns="http://www.w3.org/2000/svg">
<path d="M27.166 2.49935C28.8327 4.33268 29.8327 6.33268 29.8327 9.66602C29.8327 15.4994 25.666 20.666 19.8327 23.3327L18.3327 21.166C23.8327 18.166 24.9994 14.3327 25.3327 11.8327C24.4994 12.3327 23.3327 12.4993 22.166 12.3327C19.166 11.9993 16.8327 9.66602 16.8327 6.49935C16.8327 4.99935 17.4994 3.49935 18.4994 2.33268C19.666 1.16602 20.9994 0.666016 22.666 0.666016C24.4994 0.666016 26.166 1.49935 27.166 2.49935ZM10.4994 2.49935C12.166 4.33268 13.166 6.33268 13.166 9.66602C13.166 15.4994 8.99935 20.666 3.16602 23.3327L1.66602 21.166C7.16602 18.166 8.33268 14.3327 8.66602 11.8327C7.83268 12.3327 6.66602 12.4993 5.49935 12.3327C2.49935 11.9993 0.166016 9.49935 0.166016 6.49935C0.166016 4.99935 0.832682 3.49935 1.83268 2.33268C2.99935 1.16602 4.33268 0.666016 5.99935 0.666016C7.83268 0.666016 9.49935 1.49935 10.4994 2.49935Z" fill="black"/>
</svg>
