<svg width="16" height="16" viewBox="0 0 16 16" fill="none" xmlns="http://www.w3.org/2000/svg">
<path d="M14.6249 15.5C12.8888 15.5 11.1735 15.1217 9.47904 14.365C7.7846 13.6083 6.24293 12.5353 4.85404 11.1458C3.46516 9.75639 2.39238 8.21472 1.63571 6.52083C0.879045 4.82694 0.500433 3.11167 0.499878 1.375C0.499878 1.125 0.583211 0.916667 0.749878 0.75C0.916545 0.583333 1.12488 0.5 1.37488 0.5H4.74988C4.94432 0.5 5.11793 0.566111 5.27071 0.698333C5.42349 0.830555 5.51377 0.986667 5.54154 1.16667L6.08321 4.08333C6.11099 4.30556 6.10404 4.49306 6.06238 4.64583C6.02071 4.79861 5.94432 4.93056 5.83321 5.04167L3.81238 7.08333C4.09016 7.59722 4.41988 8.09361 4.80154 8.5725C5.18321 9.05139 5.60349 9.51333 6.06238 9.95833C6.49293 10.3889 6.94432 10.7883 7.41654 11.1567C7.88877 11.525 8.38877 11.8617 8.91654 12.1667L10.8749 10.2083C10.9999 10.0833 11.1632 9.98972 11.3649 9.9275C11.5665 9.86528 11.7643 9.84778 11.9582 9.875L14.8332 10.4583C15.0277 10.5139 15.1874 10.6147 15.3124 10.7608C15.4374 10.9069 15.4999 11.07 15.4999 11.25V14.625C15.4999 14.875 15.4165 15.0833 15.2499 15.25C15.0832 15.4167 14.8749 15.5 14.6249 15.5Z" fill="#134A8E"/>
</svg>
