<svg width="25" height="24" viewBox="0 0 25 24" fill="none" xmlns="http://www.w3.org/2000/svg">
<path d="M21.9231 0.154297H3.30769C1.90625 0.154297 0.769226 1.29132 0.769226 2.69276V21.3081C0.769226 22.7096 1.90625 23.8466 3.30769 23.8466H21.9231C23.3245 23.8466 24.4615 22.7096 24.4615 21.3081V2.69276C24.4615 1.29132 23.3245 0.154297 21.9231 0.154297ZM19.337 8.55237C19.3476 8.70045 19.3476 8.85382 19.3476 9.00189C19.3476 13.587 15.8572 18.8702 9.47932 18.8702C7.51201 18.8702 5.6875 18.299 4.15384 17.3154C4.43413 17.3471 4.70384 17.3577 4.98942 17.3577C6.61298 17.3577 8.10432 16.8077 9.29423 15.8769C7.77115 15.8452 6.49134 14.8456 6.0524 13.4706C6.58653 13.55 7.06778 13.55 7.61778 13.4072C6.03125 13.0846 4.84134 11.6884 4.84134 10.0014V9.9591C5.30144 10.2182 5.84086 10.3769 6.40673 10.398C5.93099 10.0816 5.541 9.65231 5.27154 9.14847C5.00209 8.64462 4.86156 8.08191 4.8625 7.51055C4.8625 6.86536 5.03173 6.27305 5.33317 5.76007C7.04134 7.86487 9.60625 9.23987 12.4832 9.38795C11.9913 7.03459 13.7524 5.12545 15.8678 5.12545C16.8673 5.12545 17.7663 5.54324 18.401 6.22016C19.1836 6.07209 19.9346 5.78122 20.601 5.38458C20.3418 6.18843 19.7971 6.86535 19.0779 7.29372C19.776 7.21968 20.4529 7.02401 21.0769 6.7543C20.6062 7.44709 20.0139 8.06055 19.337 8.55237Z" fill="#27A9E1"/>
</svg>
