<svg width="26" height="24" viewBox="0 0 26 24" fill="none" xmlns="http://www.w3.org/2000/svg">
<path d="M4.71929 0.154297C2.10498 0.154297 -6.10352e-05 2.08391 -6.10352e-05 4.48036V19.5205C-6.10352e-05 21.917 2.10498 23.8466 4.71929 23.8466H13.612V14.5844H10.9402V11.2497H13.612V8.4007C13.612 6.16237 15.1907 4.10721 18.8273 4.10721C20.2997 4.10721 21.3885 4.23678 21.3885 4.23678L21.3028 7.35085C21.3028 7.35085 20.1924 7.34123 18.9807 7.34123C17.6693 7.34123 17.459 7.8951 17.459 8.8146V11.2497H21.407L21.235 14.5844H17.459V23.8466H21.1267C23.7411 23.8466 25.8461 21.917 25.8461 19.5205V4.48039C25.8461 2.08394 23.7411 0.154321 21.1267 0.154321H4.71927L4.71929 0.154297Z" fill="#27A9E1"/>
</svg>
