<svg width="25" height="24" viewBox="0 0 25 24" fill="none" xmlns="http://www.w3.org/2000/svg">
<path d="M12.2276 8.05005C10.0524 8.05005 8.27729 9.82521 8.27729 12.0005C8.27729 14.1757 10.0524 15.9509 12.2276 15.9509C14.4028 15.9509 16.1779 14.1757 16.1779 12.0005C16.1779 9.82521 14.4028 8.05005 12.2276 8.05005ZM24.0756 12.0005C24.0756 10.3646 24.0904 8.74352 23.9986 7.11061C23.9067 5.21394 23.474 3.53065 22.0871 2.14371C20.6973 0.753813 19.017 0.3241 17.1203 0.23223C15.4845 0.140361 13.8635 0.155178 12.2306 0.155178C10.5947 0.155178 8.97371 0.140361 7.34083 0.23223C5.4442 0.3241 3.76094 0.756777 2.37402 2.14371C0.984149 3.53361 0.554444 5.21394 0.462576 7.11061C0.370708 8.74648 0.385525 10.3675 0.385525 12.0005C0.385525 13.6334 0.370708 15.2574 0.462576 16.8903C0.554444 18.787 0.987113 20.4703 2.37402 21.8572C3.7639 23.2471 5.4442 23.6768 7.34083 23.7687C8.97667 23.8605 10.5977 23.8457 12.2306 23.8457C13.8664 23.8457 15.4874 23.8605 17.1203 23.7687C19.017 23.6768 20.7002 23.2441 22.0871 21.8572C23.477 20.4673 23.9067 18.787 23.9986 16.8903C24.0934 15.2574 24.0756 13.6363 24.0756 12.0005ZM12.2276 18.0787C8.86406 18.0787 6.1495 15.3641 6.1495 12.0005C6.1495 8.63683 8.86406 5.92223 12.2276 5.92223C15.5912 5.92223 18.3057 8.63683 18.3057 12.0005C18.3057 15.3641 15.5912 18.0787 12.2276 18.0787ZM18.5547 7.09283C17.7693 7.09283 17.1351 6.45863 17.1351 5.67329C17.1351 4.88795 17.7693 4.25376 18.5547 4.25376C19.34 4.25376 19.9742 4.88795 19.9742 5.67329C19.9744 5.85977 19.9378 6.04447 19.8666 6.2168C19.7953 6.38913 19.6908 6.54571 19.5589 6.67758C19.4271 6.80944 19.2705 6.91399 19.0982 6.98525C18.9258 7.0565 18.7411 7.09306 18.5547 7.09283Z" fill="#27A9E1"/>
</svg>
