<svg width="18" height="18" viewBox="0 0 18 18" fill="none" xmlns="http://www.w3.org/2000/svg">
<path d="M5.2499 0.66687H12.2499C14.9166 0.66687 17.0832 2.83354 17.0832 5.5002V12.5002C17.0832 13.7821 16.574 15.0115 15.6676 15.9179C14.7612 16.8243 13.5318 17.3335 12.2499 17.3335H5.2499C2.58323 17.3335 0.416565 15.1669 0.416565 12.5002V5.5002C0.416565 4.21832 0.92579 2.98895 1.83222 2.08252C2.73864 1.17609 3.96802 0.66687 5.2499 0.66687ZM5.08323 2.33354C4.28758 2.33354 3.52452 2.64961 2.96191 3.21222C2.3993 3.77483 2.08323 4.53789 2.08323 5.33354V12.6669C2.08323 14.3252 3.4249 15.6669 5.08323 15.6669H12.4166C13.2122 15.6669 13.9753 15.3508 14.5379 14.7882C15.1005 14.2256 15.4166 13.4625 15.4166 12.6669V5.33354C15.4166 3.6752 14.0749 2.33354 12.4166 2.33354H5.08323ZM13.1249 3.58354C13.4012 3.58354 13.6661 3.69328 13.8615 3.88863C14.0568 4.08398 14.1666 4.34894 14.1666 4.6252C14.1666 4.90147 14.0568 5.16642 13.8615 5.36177C13.6661 5.55712 13.4012 5.66687 13.1249 5.66687C12.8486 5.66687 12.5837 5.55712 12.3883 5.36177C12.193 5.16642 12.0832 4.90147 12.0832 4.6252C12.0832 4.34894 12.193 4.08398 12.3883 3.88863C12.5837 3.69328 12.8486 3.58354 13.1249 3.58354ZM8.7499 4.83354C9.85497 4.83354 10.9148 5.27252 11.6962 6.05393C12.4776 6.83533 12.9166 7.89513 12.9166 9.0002C12.9166 10.1053 12.4776 11.1651 11.6962 11.9465C10.9148 12.7279 9.85497 13.1669 8.7499 13.1669C7.64483 13.1669 6.58502 12.7279 5.80362 11.9465C5.02222 11.1651 4.58323 10.1053 4.58323 9.0002C4.58323 7.89513 5.02222 6.83533 5.80362 6.05393C6.58502 5.27252 7.64483 4.83354 8.7499 4.83354ZM8.7499 6.5002C8.08686 6.5002 7.45097 6.7636 6.98213 7.23244C6.51329 7.70128 6.2499 8.33716 6.2499 9.0002C6.2499 9.66324 6.51329 10.2991 6.98213 10.768C7.45097 11.2368 8.08686 11.5002 8.7499 11.5002C9.41294 11.5002 10.0488 11.2368 10.5177 10.768C10.9865 10.2991 11.2499 9.66324 11.2499 9.0002C11.2499 8.33716 10.9865 7.70128 10.5177 7.23244C10.0488 6.7636 9.41294 6.5002 8.7499 6.5002Z" fill="white"/>
</svg>
