<svg width="1440" height="223" viewBox="0 0 1440 223" fill="none" xmlns="http://www.w3.org/2000/svg">
<g opacity="0.4" clip-path="url(#clip0_319_5886)">
<path fill-rule="evenodd" clip-rule="evenodd" d="M1408.57 109.811C1408.46 109.936 1408.33 110.047 1408.18 110.135C1407.45 110.556 1406.51 110.308 1406.09 109.573C1406.05 109.501 1406.01 109.427 1405.97 109.351C1405.61 108.647 1405.24 107.94 1404.87 107.228L1404.7 106.896C1401.7 101.062 1398.6 95.0261 1395.35 90.1883C1392.23 85.5466 1389.39 81.8522 1386.91 79.207C1383.93 76.0331 1382.58 75.4284 1382.24 75.3191C1380.44 74.7451 1378.64 75.249 1377.44 75.7738C1376.14 76.3466 1374.82 77.2302 1373.65 78.3304C1373.03 78.9051 1372.06 78.8734 1371.48 78.2553C1370.91 77.6374 1370.94 76.6692 1371.56 76.0899C1372.98 74.7572 1374.59 73.6767 1376.21 72.9664C1378.62 71.9108 1381.03 71.7162 1383.17 72.4013C1384.66 72.8781 1386.62 74.4205 1389.14 77.1102C1391.74 79.8759 1394.68 83.6995 1397.89 88.4791C1401.24 93.4663 1404.38 99.5804 1407.42 105.494L1407.6 105.825C1407.96 106.535 1408.33 107.24 1408.69 107.939C1408.7 107.97 1408.72 108.004 1408.74 108.042C1409.08 108.622 1408.99 109.332 1408.57 109.811ZM1415.45 105.831C1415.33 105.973 1415.17 106.095 1415 106.186C1414.24 106.576 1413.32 106.281 1412.93 105.53C1412.54 104.776 1412.15 104.012 1411.76 103.246C1408.6 97.123 1405.36 90.8057 1401.95 85.7279C1398.63 80.7901 1395.52 76.7577 1392.69 73.7453C1388.66 69.4568 1385.93 68.1344 1384.67 67.7298C1381.38 66.6761 1377.78 66.9419 1374.24 68.4896C1371.82 69.5497 1369.47 71.2141 1367.43 73.3065C1366.84 73.913 1365.87 73.9245 1365.26 73.3335C1364.65 72.7419 1364.63 71.7713 1365.23 71.1661C1367.54 68.794 1370.23 66.9009 1373.01 65.6823C1377.24 63.83 1381.59 63.5287 1385.6 64.8142C1387.5 65.4194 1390.65 67.0948 1394.92 71.6484C1397.86 74.7816 1401.08 78.9455 1404.49 84.0209C1408 89.2455 1411.29 95.6438 1414.47 101.832C1414.88 102.609 1415.27 103.372 1415.65 104.123C1415.95 104.697 1415.85 105.371 1415.45 105.831Z" fill="#BAE6FD"/>
<path fill-rule="evenodd" clip-rule="evenodd" d="M1378.45 148.165L1396.73 155.568C1401.16 157.364 1405.92 157.736 1410.47 156.644C1415.02 155.557 1419.08 153.075 1422.21 149.467L1422.27 149.407C1425.4 145.802 1427.29 141.435 1427.74 136.778C1428.19 132.118 1427.16 127.467 1424.76 123.325L1414.89 106.25L1408.35 110.037L1418.22 127.116C1419.83 129.906 1420.53 132.99 1420.24 136.042C1419.95 139.1 1418.67 142.004 1416.55 144.438L1416.5 144.498C1414.38 146.933 1411.68 148.601 1408.69 149.317C1405.72 150.029 1402.56 149.77 1399.58 148.56L1381.29 141.155L1378.45 148.165ZM1424.58 151.417L1424.53 151.477C1420.97 155.569 1416.35 158.387 1411.18 159.626C1406 160.864 1400.61 160.443 1395.58 158.408L1376.97 150.874C1376.3 150.6 1375.78 150.085 1375.5 149.417C1375.21 148.749 1375.21 148.01 1375.48 147.341L1378.58 139.68C1379.15 138.292 1380.73 137.623 1382.12 138.184L1400.73 145.72C1403.12 146.688 1405.63 146.903 1407.98 146.338C1410.34 145.77 1412.49 144.439 1414.19 142.489L1414.24 142.428C1415.94 140.477 1416.95 138.169 1417.19 135.751C1417.42 133.339 1416.86 130.883 1415.57 128.65L1405.52 111.266C1404.77 109.973 1405.21 108.308 1406.51 107.562L1413.66 103.423C1414.29 103.057 1415.02 102.961 1415.72 103.148C1416.42 103.336 1417.01 103.784 1417.37 104.413L1427.42 121.791C1430.13 126.488 1431.3 131.774 1430.79 137.074C1430.28 142.366 1428.13 147.328 1424.58 151.417Z" fill="#BAE6FD"/>
<path fill-rule="evenodd" clip-rule="evenodd" d="M1381.1 141.411C1380.68 141.89 1379.99 142.076 1379.37 141.826C1379.33 141.81 1379.29 141.795 1379.26 141.784C1378.42 141.492 1377.58 141.198 1376.73 140.9L1376.66 140.877C1370.38 138.682 1363.89 136.42 1358.49 133.8C1353.31 131.286 1349.11 128.905 1346.01 126.717C1343 124.589 1341.2 122.869 1340.52 121.459C1339.54 119.435 1339.4 117.025 1340.11 114.491C1340.59 112.785 1341.44 111.042 1342.56 109.443C1343.04 108.755 1344 108.585 1344.69 109.07C1345.38 109.555 1345.55 110.51 1345.07 111.204C1344.14 112.522 1343.45 113.946 1343.06 115.319C1342.71 116.576 1342.46 118.433 1343.28 120.129C1343.44 120.452 1344.22 121.703 1347.78 124.214C1350.74 126.305 1354.8 128.603 1359.83 131.044C1365.06 133.584 1371.47 135.82 1377.67 137.982L1377.74 138.006C1378.59 138.304 1379.44 138.6 1380.28 138.894C1380.36 138.924 1380.44 138.955 1380.52 138.986C1381.3 139.304 1381.68 140.196 1381.36 140.981C1381.3 141.143 1381.21 141.286 1381.1 141.411ZM1378.11 148.777C1377.71 149.234 1377.06 149.43 1376.45 149.217C1375.65 148.938 1374.84 148.652 1374.03 148.37C1367.45 146.072 1360.65 143.703 1354.99 140.957C1349.49 138.287 1344.92 135.677 1341.41 133.199C1336.31 129.598 1334.2 126.71 1333.34 124.922C1331.51 121.131 1331.21 116.778 1332.45 112.332C1333.27 109.413 1334.78 106.483 1336.8 103.864C1337.32 103.193 1338.28 103.073 1338.95 103.592C1339.62 104.11 1339.75 105.073 1339.23 105.742C1337.44 108.05 1336.12 110.617 1335.4 113.16C1334.36 116.877 1334.6 120.481 1336.1 123.589C1336.68 124.786 1338.37 127.306 1343.18 130.698C1346.55 133.079 1350.98 135.605 1356.33 138.199C1361.83 140.868 1368.54 143.209 1375.03 145.473C1375.85 145.761 1376.66 146.046 1377.47 146.325C1378.26 146.606 1378.68 147.479 1378.4 148.279C1378.33 148.467 1378.24 148.635 1378.11 148.777Z" fill="#BAE6FD"/>
<path fill-rule="evenodd" clip-rule="evenodd" d="M1463.01 153.483C1459.43 157.606 1454.43 160.086 1448.94 160.472C1443.45 160.855 1438.15 159.092 1434.03 155.509L1425.13 147.776C1424.5 147.222 1424.43 146.254 1424.98 145.616C1425.54 144.977 1426.51 144.91 1427.14 145.465L1436.04 153.197C1439.54 156.244 1444.05 157.741 1448.72 157.414C1453.4 157.088 1457.65 154.977 1460.7 151.473C1463.75 147.968 1465.24 143.464 1464.92 138.791C1464.59 134.113 1462.48 129.861 1458.98 126.814L1421.88 94.5575C1417.59 90.8282 1415.01 85.6387 1414.61 79.9414C1414.21 74.2434 1416.04 68.7453 1419.77 64.4586C1423.5 60.1691 1428.69 57.5899 1434.39 57.1898C1440.09 56.7935 1445.58 58.6268 1449.87 62.356L1486.38 94.0991C1487.02 94.654 1487.09 95.622 1486.53 96.2603C1485.98 96.8983 1485.01 96.9661 1484.37 96.4112L1447.86 64.6676C1444.19 61.4764 1439.48 59.9059 1434.6 60.2467C1429.72 60.5871 1425.27 62.7984 1422.08 66.4687C1418.89 70.1389 1417.32 74.8474 1417.66 79.7278C1418.01 84.6077 1420.22 89.0549 1423.89 92.246L1460.99 124.502C1465.11 128.085 1467.59 133.085 1467.97 138.577C1468.36 144.065 1466.59 149.362 1463.01 153.483ZM1470.14 159.678C1464.9 165.704 1457.6 169.329 1449.6 169.89C1441.59 170.449 1433.86 167.872 1427.83 162.636L1418.93 154.892C1418.29 154.337 1418.22 153.37 1418.78 152.731C1419.33 152.091 1420.3 152.026 1420.94 152.581L1429.84 160.323C1435.25 165.024 1442.19 167.336 1449.38 166.833C1456.57 166.33 1463.12 163.075 1467.82 157.668C1472.53 152.261 1474.84 145.323 1474.33 138.133C1473.83 130.938 1470.58 124.389 1465.17 119.688L1428.07 87.4313C1425.69 85.3562 1424.25 82.4641 1424.03 79.2855C1423.81 76.1019 1424.82 73.0386 1426.9 70.6544C1428.97 68.2675 1431.87 66.8329 1435.05 66.6105C1438.23 66.3883 1441.29 67.4074 1443.68 69.4824L1480.19 101.225C1480.83 101.78 1480.89 102.748 1480.34 103.386C1479.78 104.024 1478.82 104.092 1478.18 103.537L1441.67 71.7938C1439.9 70.2569 1437.62 69.5003 1435.26 69.6654C1432.9 69.8304 1430.75 70.8967 1429.21 72.6644C1427.68 74.4294 1426.92 76.7063 1427.08 79.07C1427.25 81.4333 1428.31 83.5828 1430.08 85.1197L1467.18 117.376C1473.21 122.612 1476.83 129.91 1477.39 137.92C1477.95 145.926 1475.37 153.655 1470.14 159.678Z" fill="#BAE6FD"/>
<path fill-rule="evenodd" clip-rule="evenodd" d="M1343.75 95.903L1339.74 102.575C1339.18 103.515 1339.32 104.643 1340.1 105.321L1343.82 108.55C1344.6 109.226 1345.74 109.219 1346.59 108.531L1352.64 103.634C1353.1 103.255 1353.33 102.748 1353.33 102.081C1353.34 101.436 1353.1 100.916 1352.62 100.493L1346.86 95.4887C1346.37 95.0657 1345.82 94.9053 1345.19 94.9973C1344.53 95.0926 1344.05 95.3862 1343.75 95.903ZM1355.19 105.412C1355 105.629 1354.79 105.829 1354.56 106.015L1348.51 110.912C1346.52 112.526 1343.7 112.506 1341.81 110.862L1338.09 107.633C1336.2 105.989 1335.79 103.198 1337.11 100.999L1341.12 94.3242C1341.9 93.025 1343.19 92.1892 1344.75 91.9648C1346.28 91.7445 1347.7 92.1659 1348.87 93.1793L1354.62 98.1835C1355.79 99.1949 1356.4 100.546 1356.4 102.091C1356.39 103.362 1355.97 104.516 1355.19 105.412Z" fill="#BAE6FD"/>
<path fill-rule="evenodd" clip-rule="evenodd" d="M1358.07 79.3844C1357.77 79.729 1357.62 80.1627 1357.62 80.7034C1357.61 81.3459 1357.85 81.8657 1358.34 82.2886L1364.09 87.2927C1364.58 87.7157 1365.12 87.877 1365.76 87.7848C1366.42 87.691 1366.9 87.3957 1367.2 86.8811L1371.21 80.2084C1371.78 79.2661 1371.63 78.1369 1370.85 77.4606L1367.13 74.2315C1366.35 73.5531 1365.22 73.5627 1364.36 74.2535L1358.31 79.1501C1358.22 79.2221 1358.14 79.3006 1358.07 79.3844ZM1369.32 89.1578C1368.54 90.0563 1367.46 90.6366 1366.2 90.8195C1364.67 91.0371 1363.25 90.6184 1362.08 89.605L1356.33 84.6C1355.16 83.5867 1354.55 82.2367 1354.55 80.6936C1354.56 79.1115 1355.21 77.7206 1356.38 76.7676L1362.44 71.8726C1364.43 70.2536 1367.25 70.2762 1369.14 71.9198L1372.86 75.1485C1374.75 76.7922 1375.16 79.5821 1373.84 81.785L1369.83 88.4572C1369.68 88.7076 1369.51 88.9438 1369.32 89.1578Z" fill="#BAE6FD"/>
</g>
<g opacity="0.4" clip-path="url(#clip1_319_5886)">
<path fill-rule="evenodd" clip-rule="evenodd" d="M31.4272 109.811C31.536 109.936 31.6665 110.047 31.8188 110.135C32.5492 110.556 33.4875 110.308 33.9097 109.573C33.9529 109.501 33.9945 109.427 34.0338 109.351C34.395 108.647 34.7612 107.94 35.1277 107.228L35.3002 106.896C38.3 101.062 41.4044 95.0261 44.6535 90.1883C47.769 85.5466 50.6083 81.8522 53.0914 79.207C56.0705 76.0331 57.418 75.4284 57.7627 75.3191C59.5557 74.7451 61.3597 75.249 62.5559 75.7738C63.8619 76.3466 65.1755 77.2302 66.3519 78.3304C66.97 78.9051 67.9404 78.8734 68.5152 78.2553C69.0945 77.6374 69.0603 76.6692 68.4424 76.0899C67.0174 74.7572 65.4056 73.6767 63.7858 72.9664C61.3754 71.9108 58.9689 71.7162 56.8286 72.4013C55.336 72.8781 53.3827 74.4205 50.8581 77.1102C48.2601 79.8759 45.3172 83.6995 42.1104 88.4791C38.7627 93.4663 35.6166 99.5804 32.575 105.494L32.4023 105.825C32.0385 106.535 31.6749 107.24 31.3138 107.939C31.2982 107.97 31.2776 108.004 31.2592 108.042C30.9221 108.622 31.0107 109.332 31.4272 109.811ZM24.5501 105.831C24.674 105.973 24.826 106.095 25.0029 106.186C25.756 106.576 26.6793 106.281 27.0666 105.53C27.4561 104.776 27.849 104.012 28.244 103.246C31.3953 97.123 34.6437 90.8057 38.0522 85.7279C41.3669 80.7901 44.4833 76.7577 47.3109 73.7453C51.338 69.4568 54.0661 68.1344 55.3339 67.7298C58.6172 66.6761 62.2227 66.9419 65.7589 68.4896C68.1775 69.5497 70.5338 71.2141 72.5729 73.3065C73.1638 73.913 74.1336 73.9245 74.7404 73.3335C75.3468 72.7419 75.3697 71.7713 74.7673 71.1661C72.4557 68.794 69.7652 66.9009 66.9887 65.6823C62.7564 63.83 58.4052 63.5287 54.3975 64.8142C52.5049 65.4194 49.3521 67.0948 45.0777 71.6484C42.1351 74.7816 38.9173 78.9455 35.5067 84.0209C32.0017 89.2455 28.7094 95.6438 25.5265 101.832C25.1235 102.609 24.7335 103.372 24.3462 104.123C24.0506 104.697 24.1504 105.371 24.5501 105.831Z" fill="#BAE6FD"/>
<path fill-rule="evenodd" clip-rule="evenodd" d="M61.5511 148.165L43.2695 155.568C38.8351 157.364 34.0836 157.736 29.5316 156.644C24.9835 155.557 20.9225 153.075 17.7859 149.467L17.7333 149.407C14.5989 145.802 12.7053 141.435 12.2593 136.778C11.8109 132.118 12.8417 127.467 15.237 123.325L25.1089 106.25L31.6537 110.037L21.7807 127.116C20.1677 129.906 19.4707 132.99 19.7642 136.042C20.0548 139.1 21.3317 142.004 23.4486 144.438L23.5005 144.498C25.6178 146.933 28.3153 148.601 31.3057 149.317C34.2847 150.029 37.4382 149.77 40.4249 148.56L58.7083 141.155L61.5511 148.165ZM15.4213 151.417L15.4736 151.477C19.0315 155.569 23.6462 158.387 28.8166 159.626C33.9959 160.864 39.3891 160.443 44.4196 158.408L63.0265 150.874C63.6974 150.6 64.222 150.085 64.5039 149.417C64.7902 148.749 64.7945 148.01 64.5221 147.341L61.4176 139.68C60.8537 138.292 59.2698 137.623 57.8846 138.184L39.2748 145.72C36.8818 146.688 34.3743 146.903 32.0182 146.338C29.6551 145.77 27.509 144.439 25.813 142.489L25.7603 142.428C24.0642 140.477 23.0472 138.169 22.8135 135.751C22.5817 133.339 23.1399 130.883 24.4337 128.65L34.4812 111.266C35.2301 109.973 34.7852 108.308 33.4937 107.562L26.3384 103.423C25.7121 103.057 24.9816 102.961 24.2809 103.148C23.5775 103.336 22.9946 103.784 22.6317 104.413L12.584 121.791C9.86756 126.488 8.69992 131.774 9.20962 137.074C9.7176 142.366 11.8662 147.328 15.4213 151.417Z" fill="#BAE6FD"/>
<path fill-rule="evenodd" clip-rule="evenodd" d="M58.9012 141.411C59.3177 141.89 60.0084 142.076 60.6322 141.826C60.6692 141.81 60.7066 141.795 60.7436 141.784C61.5762 141.492 62.4202 141.198 63.2733 140.9L63.3382 140.877C69.6214 138.682 76.1114 136.42 81.5132 133.8C86.6901 131.286 90.8874 128.905 93.9878 126.717C97.0044 124.589 98.7989 122.869 99.481 121.459C100.457 119.435 100.598 117.025 99.8885 114.491C99.4078 112.785 98.5641 111.042 97.4406 109.443C96.9569 108.755 96.0007 108.585 95.3064 109.07C94.6162 109.555 94.4479 110.51 94.9334 111.204C95.8593 112.522 96.5515 113.946 96.9374 115.319C97.2903 116.576 97.5388 118.433 96.7213 120.129C96.5628 120.452 95.7767 121.703 92.2217 124.214C89.2571 126.305 85.2036 128.603 80.1742 131.044C74.9361 133.584 68.5279 135.82 62.3348 137.982L62.2628 138.006C61.4094 138.304 60.5633 138.6 59.724 138.894C59.6404 138.924 59.5613 138.955 59.4823 138.986C58.6978 139.304 58.3188 140.196 58.6372 140.981C58.7023 141.143 58.7924 141.286 58.9012 141.411ZM61.8885 148.777C62.2861 149.234 62.9423 149.43 63.5521 149.217C64.3498 148.938 65.1591 148.652 65.9706 148.37C72.553 146.072 79.3487 143.703 85.008 140.957C90.5105 138.287 95.0789 135.677 98.5909 133.199C103.694 129.598 105.796 126.71 106.656 124.922C108.486 121.131 108.791 116.778 107.547 112.332C106.726 109.413 105.223 106.483 103.196 103.864C102.684 103.193 101.718 103.073 101.048 103.592C100.378 104.11 100.255 105.073 100.773 105.742C102.56 108.05 103.882 110.617 104.596 113.16C105.637 116.877 105.397 120.481 103.899 123.589C103.32 124.786 101.633 127.306 96.8225 130.698C93.4506 133.079 89.0239 135.605 83.6715 138.199C78.169 140.868 71.4636 143.209 64.974 145.473C64.1461 145.761 63.3369 146.046 62.5348 146.325C61.7391 146.606 61.3185 147.479 61.5998 148.279C61.6657 148.467 61.7649 148.635 61.8885 148.777Z" fill="#BAE6FD"/>
<path fill-rule="evenodd" clip-rule="evenodd" d="M-23.0106 153.483C-19.4259 157.606 -14.428 160.086 -8.93772 160.472C-3.4453 160.855 1.85153 159.092 5.97219 155.509L14.866 147.776C15.5042 147.222 15.572 146.254 15.0172 145.616C14.4622 144.977 13.4943 144.91 12.8561 145.465L3.96182 153.197C0.457623 156.244 -4.04635 157.741 -8.72432 157.414C-13.3975 157.088 -17.652 154.977 -20.6986 151.473C-23.7453 147.968 -25.2425 143.464 -24.9162 138.791C-24.5894 134.113 -22.4804 129.861 -18.9763 126.814L18.1237 94.5575C22.413 90.8282 24.9927 85.6387 25.3929 79.9414C25.7886 74.2434 23.9557 68.7453 20.2287 64.4586C16.4996 60.1691 11.3095 57.5899 5.61211 57.1898C-0.0859296 56.7935 -5.58384 58.6268 -9.8731 62.356L-46.3836 94.0991C-47.0218 94.654 -47.0894 95.622 -46.5345 96.2603C-45.9797 96.8983 -45.0117 96.9661 -44.3734 96.4112L-7.86337 64.6676C-4.19295 61.4764 0.518278 59.9059 5.3986 60.2467C10.2787 60.5871 14.7257 62.7984 17.9167 66.4687C21.1079 70.1389 22.6768 74.8474 22.336 79.7278C21.9947 84.6077 19.7844 89.0549 16.114 92.246L-20.9865 124.502C-25.1071 128.085 -27.5895 133.085 -27.9732 138.577C-28.3568 144.065 -26.5932 149.362 -23.0106 153.483ZM-30.1369 159.678C-24.898 165.704 -17.6026 169.329 -9.59553 169.89C-1.58645 170.449 6.14466 167.872 12.1679 162.636L21.0738 154.892C21.7119 154.337 21.7798 153.37 21.2249 152.731C20.668 152.091 19.7021 152.026 19.0639 152.581L10.1575 160.323C4.7507 165.024 -2.18759 167.336 -9.38207 166.833C-16.5724 166.33 -23.1242 163.075 -27.8249 157.668C-32.5258 152.261 -34.837 145.323 -34.3347 138.133C-33.8326 130.938 -30.5788 124.389 -25.1721 119.688L11.928 87.4313C14.3147 85.3562 15.7499 82.4641 15.9718 79.2855C16.1939 76.1019 15.1753 73.0386 13.1024 70.6544C11.0273 68.2675 8.13489 66.8329 4.95183 66.6105C1.77323 66.3883 -1.29067 67.4074 -3.6773 69.4824L-40.188 101.225C-40.8261 101.78 -40.8936 102.748 -40.3388 103.386C-39.784 104.024 -38.8159 104.092 -38.1777 103.537L-1.66764 71.7938C0.100087 70.2569 2.37696 69.5003 4.74064 69.6654C7.10445 69.8304 9.25353 70.8967 10.7904 72.6644C12.325 74.4294 13.0823 76.7063 12.9173 79.07C12.7519 81.4333 11.686 83.5828 9.91824 85.1197L-27.1822 117.376C-33.2054 122.612 -36.8324 129.91 -37.3918 137.92C-37.9493 145.926 -35.3737 153.655 -30.1369 159.678Z" fill="#BAE6FD"/>
<path fill-rule="evenodd" clip-rule="evenodd" d="M96.2531 95.903L100.261 102.575C100.825 103.515 100.676 104.643 99.8956 105.321L96.1821 108.55C95.4041 109.226 94.2644 109.219 93.4122 108.531L87.3616 103.634C86.8972 103.255 86.6679 102.748 86.667 102.081C86.6644 101.436 86.8976 100.916 87.3842 100.493L93.1401 95.4887C93.6265 95.0657 94.1762 94.9053 94.8144 94.9973C95.4724 95.0926 95.9476 95.3862 96.2531 95.903ZM84.8102 105.412C84.9987 105.629 85.2064 105.829 85.4353 106.015L91.486 110.912C93.4815 112.526 96.3014 112.506 98.192 110.862L101.905 107.633C103.796 105.989 104.211 103.198 102.887 100.999L98.8809 94.3242C98.0983 93.025 96.8089 92.1892 95.2479 91.9648C93.7201 91.7445 92.2977 92.1659 91.1321 93.1793L85.3761 98.1835C84.2129 99.1949 83.5982 100.546 83.6012 102.091C83.6071 103.362 84.0313 104.516 84.8102 105.412Z" fill="#BAE6FD"/>
<path fill-rule="evenodd" clip-rule="evenodd" d="M81.9337 79.3844C82.2334 79.729 82.382 80.1627 82.3826 80.7034C82.3874 81.3459 82.15 81.8657 81.6635 82.2886L75.9074 87.2927C75.421 87.7157 74.8759 87.877 74.2376 87.7848C73.5769 87.691 73.1044 87.3957 72.7965 86.8811L68.7881 80.2084C68.2226 79.2661 68.3741 78.1369 69.152 77.4606L72.8654 74.2315C73.6457 73.5531 74.7831 73.5627 75.6374 74.2535L81.6878 79.1501C81.7801 79.2221 81.8608 79.3006 81.9337 79.3844ZM70.6783 89.1578C71.4595 90.0563 72.5432 90.6366 73.8018 90.8195C75.3315 91.0371 76.752 90.6184 77.9176 89.605L83.6732 84.6C84.8388 83.5867 85.4537 82.2367 85.4485 80.6936C85.4432 79.1115 84.792 77.7206 83.6166 76.7676L77.5636 71.8726C75.5683 70.2536 72.7461 70.2762 70.8555 71.9198L67.142 75.1485C65.2514 76.7922 64.8393 79.5821 66.1626 81.785L70.1708 88.4572C70.3206 88.7076 70.4922 88.9438 70.6783 89.1578Z" fill="#BAE6FD"/>
</g>
<defs>
<clipPath id="clip0_319_5886">
<rect width="156.859" height="156.859" fill="white" transform="translate(1308.39 119.246) rotate(-48.9954)"/>
</clipPath>
<clipPath id="clip1_319_5886">
<rect width="156.859" height="156.859" fill="white" transform="matrix(-0.656119 -0.754657 -0.754657 0.656119 131.605 119.246)"/>
</clipPath>
</defs>
</svg>
