<svg width="18" height="15" viewBox="0 0 18 15" fill="none" xmlns="http://www.w3.org/2000/svg">
<path d="M17.9666 1.99999C17.3249 2.29166 16.6333 2.48333 15.9166 2.57499C16.6499 2.13333 17.2166 1.43333 17.4833 0.591662C16.7916 1.00833 16.0249 1.3 15.2166 1.46666C14.5583 0.749995 13.6333 0.333328 12.5833 0.333328C10.6249 0.333328 9.02493 1.93333 9.02493 3.90833C9.02493 4.19166 9.05826 4.46666 9.1166 4.725C6.14993 4.575 3.50826 3.14999 1.74993 0.991662C1.4416 1.51666 1.2666 2.13333 1.2666 2.78333C1.2666 4.02499 1.8916 5.12499 2.85826 5.74999C2.2666 5.74999 1.7166 5.58333 1.23326 5.33333V5.35833C1.23326 7.09166 2.4666 8.54166 4.09993 8.86666C3.57563 9.01077 3.02496 9.03075 2.4916 8.925C2.71794 9.63539 3.16121 10.257 3.75911 10.7024C4.35701 11.1479 5.07947 11.3947 5.82493 11.4083C4.56132 12.4088 2.99494 12.9495 1.38326 12.9417C1.09993 12.9417 0.816598 12.925 0.533264 12.8917C2.1166 13.9083 3.99993 14.5 6.0166 14.5C12.5833 14.5 16.1916 9.04999 16.1916 4.32499C16.1916 4.16666 16.1916 4.01666 16.1833 3.85833C16.8833 3.35833 17.4833 2.72499 17.9666 1.99999Z" fill="white"/>
</svg>
