<svg width="30" height="24" viewBox="0 0 30 24" fill="none" xmlns="http://www.w3.org/2000/svg">
<path d="M2.83268 21.5003C1.16602 19.667 0.166016 17.667 0.166016 14.3337C0.166016 8.50033 4.33268 3.33366 10.166 0.666992L11.666 2.83366C6.16602 5.83366 4.99935 9.66699 4.66602 12.167C5.49935 11.667 6.66602 11.5003 7.83268 11.667C10.8327 12.0003 13.166 14.3337 13.166 17.5003C13.166 19.0003 12.4993 20.5003 11.4993 21.667C10.3327 22.8337 8.99935 23.3337 7.33268 23.3337C5.49935 23.3337 3.83268 22.5003 2.83268 21.5003ZM19.4993 21.5003C17.8327 19.667 16.8327 17.667 16.8327 14.3337C16.8327 8.50033 20.9993 3.33366 26.8327 0.666992L28.3327 2.83366C22.8327 5.83366 21.666 9.66699 21.3327 12.167C22.166 11.667 23.3327 11.5003 24.4994 11.667C27.4994 12.0003 29.8327 14.3337 29.8327 17.5003C29.8327 19.0003 29.166 20.5003 28.166 21.667C27.166 22.8337 25.666 23.3337 23.9993 23.3337C22.166 23.3337 20.4994 22.5003 19.4993 21.5003Z" fill="black"/>
</svg>
