<svg width="60" height="47" viewBox="0 0 60 47" fill="none" xmlns="http://www.w3.org/2000/svg">
<path d="M5.66668 42.5173C2.33334 38.8506 0.333344 34.8506 0.333344 28.1839C0.333344 16.5173 8.66668 6.18392 20.3333 0.850586L23.3333 5.18392C12.3333 11.1839 10 18.8506 9.33334 23.8506C11 22.8506 13.3333 22.5173 15.6667 22.8506C21.6667 23.5173 26.3333 28.1839 26.3333 34.5173C26.3333 37.5173 25 40.5173 23 42.8506C20.6667 45.1839 18 46.1839 14.6667 46.1839C11 46.1839 7.66668 44.5173 5.66668 42.5173ZM39 42.5173C35.6667 38.8506 33.6667 34.8506 33.6667 28.1839C33.6667 16.5173 42 6.18392 53.6667 0.850586L56.6667 5.18392C45.6667 11.1839 43.3333 18.8506 42.6667 23.8506C44.3333 22.8506 46.6667 22.5173 49 22.8506C55 23.5173 59.6667 28.1839 59.6667 34.5173C59.6667 37.5173 58.3333 40.5173 56.3333 42.8506C54.3333 45.1839 51.3333 46.1839 48 46.1839C44.3333 46.1839 41 44.5173 39 42.5173Z" fill="#134A8E"/>
</svg>
